<svg width="300" height="300" viewBox="0 0 300 300" fill="none" xmlns="http://www.w3.org/2000/svg">
<rect x="1" y="1" width="298" height="298" rx="7" fill="#ECECEC" stroke="black" stroke-width="2"/>
<rect x="13.5" y="12.5" width="274" height="274" rx="1.5" fill="#ECECEC" stroke="black"/>
<path d="M149.5 80.0411C122.506 74.7372 107.086 74.5694 79 80.0411C79.4148 138.934 89.0505 167.112 119.5 210.541C141.063 225.907 154.412 230.315 185 215.541C198.104 206.478 205.307 200.543 218 189.041L185 193.541C170.304 195.659 163.788 193.867 156 184.041C138.647 144.571 138.93 121.668 149.5 80.0411Z" fill="#CCC7BC"/>
<path d="M106.564 177.193C104.657 177.631 102.987 177.97 101.636 178.221C98.2029 178.856 101.5 178.194 106.564 177.193C117.41 174.7 135.898 169.023 146.688 158.541C140.141 165.054 136.793 166.918 123.892 173.759C127.806 173.021 114.83 175.558 106.564 177.193Z" fill="black" fill-opacity="0.2"/>
<path d="M123.084 206.062C121.323 206.45 119.779 206.747 118.53 206.962C115.356 207.509 118.403 206.932 123.084 206.062C133.101 203.854 150.141 198.674 159.913 188.541C153.988 194.841 150.922 196.608 139.101 203.079C142.72 202.442 130.725 204.642 123.084 206.062Z" fill="black" fill-opacity="0.2"/>
<g filter="url(#filter0_i_1_132)">
<ellipse cx="113" cy="83.5411" rx="30" ry="5" fill="#8B8B8B"/>
</g>
<path d="M79 88.5411C104.277 96.756 119.68 96.453 149 88.5411L143.5 135.541C119.873 144.192 106.627 144.53 83 135.541L79 88.5411Z" fill="#F1C05F"/>
<path d="M220.5 187.541C224.544 189.02 189 213.541 189 213.541C189.453 202.45 186.831 198.14 177.5 193.541C177.5 193.541 216.456 186.063 220.5 187.541Z" fill="#F1C05F"/>
<path d="M151.928 115.164C151.687 117.05 150.963 118.647 150.039 119.71C149.111 120.779 148.07 121.223 147.135 121.104C146.201 120.984 145.306 120.292 144.676 119.023C144.05 117.762 143.752 116.034 143.993 114.148C144.235 112.262 144.959 110.666 145.882 109.603C146.811 108.534 147.851 108.089 148.786 108.209C149.721 108.328 150.616 109.021 151.245 110.289C151.871 111.55 152.17 113.278 151.928 115.164Z" stroke="#F1C05F" stroke-width="2"/>
<circle cx="220" cy="188.541" r="3" fill="#F1C05F"/>
<defs>
<filter id="filter0_i_1_132" x="83" y="78.5411" width="60" height="14" filterUnits="userSpaceOnUse" color-interpolation-filters="sRGB">
<feFlood flood-opacity="0" result="BackgroundImageFix"/>
<feBlend mode="normal" in="SourceGraphic" in2="BackgroundImageFix" result="shape"/>
<feColorMatrix in="SourceAlpha" type="matrix" values="0 0 0 0 0 0 0 0 0 0 0 0 0 0 0 0 0 0 127 0" result="hardAlpha"/>
<feOffset dy="4"/>
<feGaussianBlur stdDeviation="2"/>
<feComposite in2="hardAlpha" operator="arithmetic" k2="-1" k3="1"/>
<feColorMatrix type="matrix" values="0 0 0 0 0 0 0 0 0 0 0 0 0 0 0 0 0 0 0.25 0"/>
<feBlend mode="normal" in2="shape" result="effect1_innerShadow_1_132"/>
</filter>
</defs>
</svg>
