<svg width="300" height="300" viewBox="0 0 300 300" fill="none" xmlns="http://www.w3.org/2000/svg">
<rect x="1" y="1" width="298" height="298" rx="7" fill="#E24C2A" stroke="#B61B1B" stroke-width="2"/>
<mask id="path-2-inside-1_1_5" fill="white">
<rect x="50" y="50" width="200" height="200" rx="2"/>
</mask>
<rect x="50" y="50" width="200" height="200" rx="2" fill="#E24C2A" stroke="white" stroke-width="8" mask="url(#path-2-inside-1_1_5)"/>
<path d="M156.985 118.616C156.985 114.691 155.065 111.533 151.225 109.144C147.385 106.669 141.71 105.091 134.201 104.408L136.505 94.552C146.233 94.9787 153.955 97.3253 159.673 101.592C165.39 105.859 168.249 111.107 168.249 117.336C168.249 123.992 165.689 129.624 160.569 134.232C158.606 135.939 156.643 137.645 154.681 139.352C150.158 143.448 147.641 148.397 147.128 154.2L146.873 161.752H137.017C136.846 158.168 136.76 155.821 136.76 154.712C136.76 147.629 139.235 141.571 144.185 136.536C145.977 134.659 147.769 132.867 149.561 131.16C154.51 126.637 156.985 122.456 156.985 118.616ZM137.145 171.224C138.681 169.688 140.515 168.92 142.649 168.92C144.782 168.92 146.617 169.688 148.153 171.224C149.689 172.675 150.457 174.509 150.457 176.728C150.457 178.861 149.689 180.739 148.153 182.36C146.617 183.896 144.782 184.664 142.649 184.664C140.515 184.664 138.681 183.896 137.145 182.36C135.609 180.739 134.841 178.861 134.841 176.728C134.841 174.509 135.609 172.675 137.145 171.224Z" fill="white"/>
</svg>
