<svg width="300" height="300" viewBox="0 0 300 300" fill="none" xmlns="http://www.w3.org/2000/svg">
<rect x="1" y="1" width="298" height="298" rx="7" fill="#ECECEC" stroke="black" stroke-width="2"/>
<rect x="13.5" y="13.5" width="274" height="274" rx="1.5" fill="#ECECEC" stroke="black"/>
<ellipse cx="170.5" cy="126" rx="86.5" ry="57" fill="#844D1A"/>
<path d="M256.218 124.67C255.224 156.477 226.051 173.054 196 179.5C191.681 169.922 210.783 170.329 164.5 149.5C194.091 121.963 241.936 54.2383 256.218 124.67Z" fill="black" fill-opacity="0.2"/>
<path d="M43.5 137C65.4723 136.916 74.6204 131.85 86 115L186.5 180.5C180.986 187.725 180.9 191.775 186.5 199C164.734 184.541 155.517 187.241 144.5 202.5C140.944 182.136 128.264 183.277 96 196.5C95.3451 174.043 84.6298 169.978 57 170C64.4923 157.603 59.3497 149.648 43.5 137Z" fill="#844D1A"/>
<g filter="url(#filter0_i_1_425)">
<path d="M57 143.5C70.835 149.899 75.7673 153.846 64 163.5C92.0601 168.278 101.795 172.749 101.5 186C125.299 177.784 134.735 178.334 146.5 186C154.339 181.347 161.075 182.257 174.5 186C163.892 180.876 164.488 177.31 174.5 170C169.356 158.755 162.334 158.952 143 170C141.067 152.96 132.771 152.816 111.5 161C109.684 140.313 104.166 136.19 85.5 143.5C76.5331 133.942 70.3332 133.764 57 143.5Z" fill="#1C1C1C"/>
</g>
<path d="M57 143.5C70.835 149.899 75.7673 153.846 64 163.5C92.0601 168.278 101.795 172.749 101.5 186C125.299 177.784 134.735 178.334 146.5 186C154.339 181.347 161.075 182.257 174.5 186C163.892 180.876 164.488 177.31 174.5 170C169.356 158.755 162.334 158.952 143 170C141.067 152.96 132.771 152.816 111.5 161C109.684 140.313 104.166 136.19 85.5 143.5C76.5331 133.942 70.3332 133.764 57 143.5Z" stroke="black"/>
<path d="M84.6758 143.34C84.4591 143.588 84.234 143.838 84 144.093C84.2295 143.836 84.4547 143.585 84.6758 143.34C87.5302 140.082 88.9235 137.32 89.8461 130.082C120.251 120.984 119.526 123.642 97.5279 133.822C92.3099 135.758 89.394 138.122 84.6758 143.34Z" fill="black" fill-opacity="0.2"/>
<path d="M193.842 167.262C194.127 167.097 194.421 166.933 194.725 166.767C194.425 166.937 194.131 167.101 193.842 167.262C190.089 169.424 187.878 171.587 184.667 178.14C167.24 181.888 168.519 179.514 178.605 172.119C184.168 171.972 187.692 170.677 193.842 167.262Z" fill="black" fill-opacity="0.2"/>
<path d="M144.583 168.908C144.514 169.254 144.438 169.607 144.357 169.969C144.433 169.607 144.508 169.254 144.583 168.908C145.496 164.352 145.335 161.006 142.427 153.608C163.758 129.294 169.848 128.766 151.362 153.329C147.611 157.807 146.179 161.537 144.583 168.908Z" fill="black" fill-opacity="0.2"/>
<path d="M113.62 158.167C113.515 158.479 113.404 158.797 113.286 159.122C113.399 158.796 113.51 158.478 113.62 158.167C114.998 154.06 115.22 150.975 113.282 143.94C133.858 124.2 134.262 126.939 121.811 144.431C117.742 148.228 115.963 151.533 113.62 158.167Z" fill="black" fill-opacity="0.2"/>
<circle cx="10" cy="10" r="10" transform="matrix(0.983255 -0.182236 0.475931 0.879483 28 170.645)" fill="#DFC746"/>
<circle cx="10" cy="10" r="10" transform="matrix(0.983255 -0.182236 0.475931 0.879483 29 169.645)" fill="#EED44C"/>
<circle cx="9" cy="9" r="8.5" transform="matrix(0.983255 -0.182236 0.475931 0.879483 30 170.28)" fill="#EED44C" stroke="#DFC746"/>
<circle cx="10" cy="10" r="10" transform="matrix(0.983255 -0.182236 0.475931 0.879483 58 143.645)" fill="#DFC746"/>
<circle cx="10" cy="10" r="10" transform="matrix(0.983255 -0.182236 0.475931 0.879483 59 142.645)" fill="#EED44C"/>
<circle cx="9" cy="9" r="8.5" transform="matrix(0.983255 -0.182236 0.475931 0.879483 60 143.28)" fill="#EED44C" stroke="#DFC746"/>
<circle cx="10" cy="10" r="10" transform="matrix(0.983255 -0.182236 0.475931 0.879483 65 181.645)" fill="#DFC746"/>
<circle cx="10" cy="10" r="10" transform="matrix(0.983255 -0.182236 0.475931 0.879483 66 180.645)" fill="#EED44C"/>
<circle cx="9" cy="9" r="8.5" transform="matrix(0.983255 -0.182236 0.475931 0.879483 67 181.28)" fill="#EED44C" stroke="#DFC746"/>
<circle cx="10" cy="10" r="10" transform="matrix(0.983255 -0.182236 0.475931 0.879483 30 184.645)" fill="#DFC746"/>
<circle cx="10" cy="10" r="10" transform="matrix(0.983255 -0.182236 0.475931 0.879483 31 183.645)" fill="#EED44C"/>
<circle cx="9" cy="9" r="8.5" transform="matrix(0.983255 -0.182236 0.475931 0.879483 32 184.28)" fill="#EED44C" stroke="#DFC746"/>
<circle cx="10" cy="10" r="10" transform="matrix(0.983255 -0.182236 0.475931 0.879483 111 167.645)" fill="#DFC746"/>
<circle cx="10" cy="10" r="10" transform="matrix(0.983255 -0.182236 0.475931 0.879483 112 166.645)" fill="#EED44C"/>
<circle cx="9" cy="9" r="8.5" transform="matrix(0.983255 -0.182236 0.475931 0.879483 113 167.28)" fill="#EED44C" stroke="#DFC746"/>
<circle cx="10" cy="10" r="10" transform="matrix(0.983255 -0.182236 0.475931 0.879483 90 163.645)" fill="#DFC746"/>
<circle cx="10" cy="10" r="10" transform="matrix(0.983255 -0.182236 0.475931 0.879483 91 162.645)" fill="#EED44C"/>
<circle cx="9" cy="9" r="8.5" transform="matrix(0.983255 -0.182236 0.475931 0.879483 92 163.28)" fill="#EED44C" stroke="#DFC746"/>
<circle cx="10" cy="10" r="10" transform="matrix(0.983255 -0.182236 0.475931 0.879483 112 177.645)" fill="#DFC746"/>
<circle cx="10" cy="10" r="10" transform="matrix(0.983255 -0.182236 0.475931 0.879483 113 176.645)" fill="#EED44C"/>
<circle cx="9" cy="9" r="8.5" transform="matrix(0.983255 -0.182236 0.475931 0.879483 114 177.28)" fill="#EED44C" stroke="#DFC746"/>
<circle cx="10" cy="10" r="10" transform="matrix(0.983255 -0.182236 0.475931 0.879483 99 180.645)" fill="#DFC746"/>
<circle cx="10" cy="10" r="10" transform="matrix(0.983255 -0.182236 0.475931 0.879483 100 179.645)" fill="#EED44C"/>
<circle cx="9" cy="9" r="8.5" transform="matrix(0.983255 -0.182236 0.475931 0.879483 101 180.28)" fill="#EED44C" stroke="#DFC746"/>
<circle cx="10" cy="10" r="10" transform="matrix(0.983255 -0.182236 0.475931 0.879483 144 172.645)" fill="#DFC746"/>
<circle cx="10" cy="10" r="10" transform="matrix(0.983255 -0.182236 0.475931 0.879483 145 171.645)" fill="#EED44C"/>
<circle cx="9" cy="9" r="8.5" transform="matrix(0.983255 -0.182236 0.475931 0.879483 146 172.28)" fill="#EED44C" stroke="#DFC746"/>
<circle cx="10" cy="10" r="10" transform="matrix(0.983255 -0.182236 0.475931 0.879483 72 154.645)" fill="#DFC746"/>
<circle cx="10" cy="10" r="10" transform="matrix(0.983255 -0.182236 0.475931 0.879483 73 153.645)" fill="#EED44C"/>
<circle cx="9" cy="9" r="8.5" transform="matrix(0.983255 -0.182236 0.475931 0.879483 74 154.28)" fill="#EED44C" stroke="#DFC746"/>
<circle cx="10" cy="10" r="10" transform="matrix(0.983255 -0.182236 0.475931 0.879483 82 149.645)" fill="#DFC746"/>
<circle cx="10" cy="10" r="10" transform="matrix(0.983255 -0.182236 0.475931 0.879483 83 148.645)" fill="#EED44C"/>
<circle cx="9" cy="9" r="8.5" transform="matrix(0.983255 -0.182236 0.475931 0.879483 84 149.28)" fill="#EED44C" stroke="#DFC746"/>
<line x1="84" y1="132" x2="101" y2="132" stroke="#5F3E00" stroke-width="4"/>
<line x1="180.772" y1="164.072" x2="188.658" y2="179.132" stroke="#5F3E00" stroke-width="4"/>
<line x1="143.839" y1="148.185" x2="159.27" y2="155.317" stroke="#5F3E00" stroke-width="4"/>
<line x1="114.947" y1="136.238" x2="129.92" y2="144.289" stroke="#5F3E00" stroke-width="4"/>
<defs>
<filter id="filter0_i_1_425" x="56.0191" y="135.765" width="119.105" height="54.9424" filterUnits="userSpaceOnUse" color-interpolation-filters="sRGB">
<feFlood flood-opacity="0" result="BackgroundImageFix"/>
<feBlend mode="normal" in="SourceGraphic" in2="BackgroundImageFix" result="shape"/>
<feColorMatrix in="SourceAlpha" type="matrix" values="0 0 0 0 0 0 0 0 0 0 0 0 0 0 0 0 0 0 127 0" result="hardAlpha"/>
<feOffset dy="4"/>
<feGaussianBlur stdDeviation="2"/>
<feComposite in2="hardAlpha" operator="arithmetic" k2="-1" k3="1"/>
<feColorMatrix type="matrix" values="0 0 0 0 0 0 0 0 0 0 0 0 0 0 0 0 0 0 0.25 0"/>
<feBlend mode="normal" in2="shape" result="effect1_innerShadow_1_425"/>
</filter>
</defs>
</svg>
