<svg width="300" height="300" viewBox="0 0 300 300" fill="none" xmlns="http://www.w3.org/2000/svg">
<rect x="1" y="1" width="298" height="298" rx="7" fill="#ECECEC" stroke="black" stroke-width="2"/>
<rect x="13.5" y="13.5" width="274" height="274" rx="1.5" fill="#ECECEC" stroke="black"/>
<path d="M213.5 170.5C181.058 186.234 141.937 186.654 45 176.5C45.6859 192.963 48.5637 200.125 59 208.5C129.769 228.312 163.523 231.497 213.5 223.5C253.955 216.358 253.494 199.536 240 148H226C225.865 160.611 224.764 166.855 213.5 170.5Z" fill="#975920"/>
<path fill-rule="evenodd" clip-rule="evenodd" d="M226.111 134.285C226.038 134.425 226 134.582 226 134.74V150.207C226 150.603 226.238 150.965 226.602 151.122C238.555 156.285 246.37 156.316 261.39 151.074C261.758 150.945 262.023 150.61 262.058 150.221L262.314 147.423C258.589 147.594 255.293 147.925 252.441 148.211C245.881 148.868 241.674 149.29 240 147C236.356 145.054 237.07 135.46 242.068 135.033C247.017 134.61 256.722 138.787 262.819 141.907L263.93 129.76C263.972 129.311 263.7 128.887 263.277 128.732C243.431 121.451 231.695 123.574 226.111 134.285Z" fill="#975920"/>
<path d="M203.5 116C214.162 123.953 220.882 126.58 235 126L226 137.5C224.037 133.88 222.15 132.69 216.5 133C200.905 130.146 198.626 126.22 203.5 116Z" fill="#975920"/>
<path d="M204 119C209.855 124.811 216.743 126.526 231.179 128.533" stroke="#5F3E00"/>
<path d="M203.753 121.802C209.22 127.463 215.746 129.039 229.452 130.765" stroke="#5F3E00"/>
<path d="M204.793 125.155C209.333 130.203 214.844 131.15 226.447 131.591" stroke="#5F3E00"/>
<ellipse cx="250.5" cy="150" rx="1.5" ry="3" fill="#975920"/>
<ellipse cx="247.5" cy="150.5" rx="1.5" ry="3.5" fill="#975920"/>
<ellipse cx="244.5" cy="150.5" rx="1.5" ry="3.5" fill="#975920"/>
<ellipse cx="241.5" cy="149.5" rx="1.5" ry="3.5" fill="#975920"/>
<ellipse cx="253.5" cy="150" rx="1.5" ry="3" fill="#975920"/>
<ellipse cx="256.5" cy="136.5" rx="1.5" ry="3.5" fill="#975920"/>
<ellipse cx="253.5" cy="135.5" rx="1.5" ry="3.5" fill="#975920"/>
<ellipse cx="250.5" cy="135.5" rx="1.5" ry="3.5" fill="#975920"/>
<ellipse cx="247.5" cy="135.5" rx="1.5" ry="3.5" fill="#975920"/>
<ellipse cx="244.5" cy="135.5" rx="1.5" ry="3.5" fill="#975920"/>
<ellipse cx="241.5" cy="135.5" rx="1.5" ry="3.5" fill="#975920"/>
<ellipse cx="238.5" cy="130.5" rx="6.5" ry="2.5" fill="#5F3E00"/>
<circle cx="239.5" cy="131" r="2.5" fill="#975920"/>
<ellipse cx="264" cy="135.5" rx="6" ry="6.5" fill="#975920"/>
<path d="M239 135.029C249.42 132.959 257.344 139.052 263.5 142" stroke="#5F3E00"/>
<path d="M266.5 133.783C266.502 132.044 266.008 131.652 264 132.283C265.649 133.09 264.357 133.829 261 135.283L266.5 133.783Z" fill="#5F3E00"/>
<path d="M239 135C235.263 141.183 235.354 141.454 239 148.5" stroke="#5F3E00"/>
<path d="M239 148.5C241.142 150.133 246.665 149.839 263 147.5" stroke="#5F3E00"/>
<path d="M59.5 204C51.1738 195.305 48.9789 190.584 50.5 182.5C157.189 195.343 200.008 191.359 238 159C245.371 188.12 245.989 200.122 236.5 208.5C204.793 229.405 166.061 228.347 59.5 204Z" fill="#975920" stroke="#844D1A"/>
<line x1="215.5" y1="205" x2="215.5" y2="212" stroke="#844D1A"/>
<path d="M56 200C162.196 221.443 203.37 218.751 244.608 188.15" stroke="#844D1A"/>
<path d="M52 196C159.52 217.36 201.217 214.635 243 184" stroke="#844D1A"/>
<path d="M111.5 188.5C172.156 202.345 224.484 185.217 239.5 166" stroke="#844D1A"/>
<path d="M115.905 215.5C176.56 229.345 228.889 212.217 243.905 193" stroke="#844D1A"/>
<path d="M51 191C158.52 212.36 200.217 209.635 242 179" stroke="#844D1A"/>
<path d="M49.9687 184.501C157.489 205.861 199.185 203.136 240.969 172.501" stroke="#844D1A"/>
<line x1="159.5" y1="198" x2="159.5" y2="204" stroke="#844D1A"/>
<line x1="88.5" y1="198" x2="88.5" y2="203" stroke="#844D1A"/>
<line x1="218.5" y1="173" x2="218.5" y2="181" stroke="#844D1A"/>
<line x1="201.5" y1="200" x2="201.5" y2="204" stroke="#844D1A"/>
<line x1="180.5" y1="208" x2="180.5" y2="213" stroke="#844D1A"/>
<line x1="108.5" y1="188" x2="108.5" y2="195" stroke="#844D1A"/>
<line x1="68.5" y1="188" x2="68.5" y2="195" stroke="#844D1A"/>
<line x1="235.5" y1="201" x2="235.5" y2="209" stroke="#844D1A"/>
<line x1="126.5" y1="212" x2="126.5" y2="218" stroke="#844D1A"/>
<line x1="225.5" y1="178" x2="225.5" y2="182" stroke="#844D1A"/>
<line x1="193.5" y1="183" x2="193.5" y2="190" stroke="#844D1A"/>
<path d="M45 141H50.5C50.2094 160.427 52.4643 168.9 61.5 179H45V141Z" fill="#975920"/>
<ellipse cx="41" cy="138.5" rx="10" ry="8.5" fill="#975920"/>
<path d="M34.919 139.304C36.8817 140.667 36.0555 135.891 38 135.5L42.5 140.5C41.9296 140.999 39.1869 142.898 34 140.5C33.7897 137.387 34.1725 135.884 37.419 132.304C42.1889 131.494 45.1578 133.449 47 135C47.3809 138.913 46.9277 168.743 55.419 180.304C53.4993 178.58 52.5981 178.075 51.419 178.304C47.5412 179.168 45.9811 171.184 46 137.5C45.4524 134.18 42.4926 132.594 38.419 133.804C36.2549 135.526 35.7258 136.621 34.919 139.304Z" fill="#844D1A"/>
<circle cx="40.5" cy="137.5" r="3.5" fill="#844D1A"/>
<rect x="136" y="74" width="6" height="112" rx="2" fill="#975920"/>
<rect x="90" y="93" width="99" height="4" rx="2" fill="#975920"/>
<path d="M91.6798 99.0099C91.096 98.3072 91.6745 97.2235 92.5803 97.3431C139.948 103.599 162.235 104.058 188.197 97.2138C188.661 97.0914 189.157 97.3235 189.364 97.7564C206.683 133.822 207.317 152.352 189.212 170.786C189.076 170.924 188.896 171.022 188.707 171.063C157.301 177.81 134.502 176.269 94.1975 171.5C93.1502 171.376 92.9869 169.895 93.9682 169.508C125.769 156.994 127.047 141.587 91.6798 99.0099Z" fill="white"/>
<ellipse cx="111.5" cy="191" rx="11.5" ry="13" fill="#F1C05F"/>
<ellipse cx="111.5" cy="191" rx="10.5" ry="12" fill="#5F3E00"/>
<line x1="104.5" y1="184" x2="104.5" y2="199" stroke="#844D1A"/>
<line x1="119.5" y1="184" x2="119.5" y2="199" stroke="#844D1A"/>
<line x1="107.5" y1="180" x2="107.5" y2="202" stroke="#844D1A"/>
<line x1="116.5" y1="180" x2="116.5" y2="202" stroke="#844D1A"/>
<line x1="111.5" y1="179" x2="111.5" y2="203" stroke="#844D1A"/>
<ellipse cx="111.5" cy="179" rx="0.5" ry="1" fill="#F1C05F"/>
<circle cx="119.5" cy="199.5" r="0.5" fill="#F1C05F"/>
<ellipse cx="119.5" cy="183" rx="0.5" ry="1" fill="#F1C05F"/>
<ellipse cx="122.5" cy="191" rx="0.5" ry="1" fill="#F1C05F"/>
<circle cx="111.5" cy="203.5" r="0.5" fill="#F1C05F"/>
<ellipse cx="100.5" cy="191" rx="0.5" ry="1" fill="#F1C05F"/>
<ellipse cx="103.5" cy="183" rx="0.5" ry="1" fill="#F1C05F"/>
<circle cx="103.5" cy="199.5" r="0.5" fill="#F1C05F"/>
<ellipse cx="111.5" cy="191" rx="3.5" ry="4" fill="#8B8B8B"/>
<ellipse cx="111.5" cy="191" rx="2.5" ry="3" fill="#464646"/>
<circle cx="119.5" cy="199.5" r="0.5" fill="#8B8B8B"/>
<circle cx="103.5" cy="199.5" r="0.5" fill="#8B8B8B"/>
<path d="M103.767 183.469L103.55 182.894C103.465 183.004 103.433 183.077 103.461 183.269C103.553 183.449 103.623 183.483 103.767 183.469Z" fill="black" fill-opacity="0.11"/>
<path d="M101.019 191.306L100.731 190.772C100.66 190.894 100.638 190.972 100.69 191.157C100.805 191.321 100.878 191.342 101.019 191.306Z" fill="black" fill-opacity="0.11"/>
<path d="M104 199.89L103.062 199C102.969 199.288 102.961 199.457 103.179 199.795C103.525 200.051 103.702 200.049 104 199.89Z" fill="black" fill-opacity="0.11"/>
<path d="M113 193.561L109.248 190C108.875 191.154 108.843 191.829 109.717 193.179C111.101 194.203 111.809 194.196 113 193.561Z" fill="black" fill-opacity="0.11"/>
<path d="M111.757 203.297L111.327 202.903C111.297 203.046 111.299 203.128 111.404 203.282C111.56 203.392 111.636 203.385 111.757 203.297Z" fill="black" fill-opacity="0.11"/>
<ellipse cx="82.5" cy="189" rx="11.5" ry="13" fill="#F1C05F"/>
<ellipse cx="82.5" cy="189" rx="10.5" ry="12" fill="#5F3E00"/>
<line x1="75.5" y1="182" x2="75.5" y2="197" stroke="#844D1A"/>
<line x1="90.5" y1="182" x2="90.5" y2="197" stroke="#844D1A"/>
<line x1="78.5" y1="178" x2="78.5" y2="200" stroke="#844D1A"/>
<line x1="87.5" y1="178" x2="87.5" y2="200" stroke="#844D1A"/>
<line x1="82.5" y1="177" x2="82.5" y2="201" stroke="#844D1A"/>
<ellipse cx="82.5" cy="177" rx="0.5" ry="1" fill="#F1C05F"/>
<circle cx="90.5" cy="197.5" r="0.5" fill="#F1C05F"/>
<ellipse cx="90.5" cy="181" rx="0.5" ry="1" fill="#F1C05F"/>
<ellipse cx="93.5" cy="189" rx="0.5" ry="1" fill="#F1C05F"/>
<circle cx="82.5" cy="201.5" r="0.5" fill="#F1C05F"/>
<ellipse cx="71.5" cy="189" rx="0.5" ry="1" fill="#F1C05F"/>
<ellipse cx="74.5" cy="181" rx="0.5" ry="1" fill="#F1C05F"/>
<circle cx="74.5" cy="197.5" r="0.5" fill="#F1C05F"/>
<ellipse cx="82.5" cy="189" rx="3.5" ry="4" fill="#8B8B8B"/>
<ellipse cx="82.5" cy="189" rx="2.5" ry="3" fill="#464646"/>
<circle cx="90.5" cy="197.5" r="0.5" fill="#8B8B8B"/>
<circle cx="74.5" cy="197.5" r="0.5" fill="#8B8B8B"/>
<path d="M74.767 181.469L74.5504 180.894C74.4647 181.004 74.4328 181.077 74.4611 181.269C74.5533 181.449 74.6231 181.483 74.767 181.469Z" fill="black" fill-opacity="0.11"/>
<path d="M72.0186 189.306L71.7309 188.772C71.6601 188.894 71.6379 188.972 71.6903 189.157C71.8046 189.321 71.8779 189.342 72.0186 189.306Z" fill="black" fill-opacity="0.11"/>
<path d="M75 197.89L74.0619 197C73.9688 197.288 73.9607 197.457 74.1792 197.795C74.5253 198.051 74.7023 198.049 75 197.89Z" fill="black" fill-opacity="0.11"/>
<path d="M84 191.561L80.2477 188C79.8752 189.154 79.8427 189.829 80.7167 191.179C82.101 192.203 82.8093 192.196 84 191.561Z" fill="black" fill-opacity="0.11"/>
<path d="M82.7572 201.297L82.327 200.903C82.297 201.046 82.2993 201.128 82.4039 201.282C82.5602 201.392 82.6356 201.385 82.7572 201.297Z" fill="black" fill-opacity="0.11"/>
<ellipse cx="204.5" cy="178" rx="11.5" ry="13" fill="#F1C05F"/>
<ellipse cx="204.5" cy="178" rx="10.5" ry="12" fill="#5F3E00"/>
<line x1="197.5" y1="171" x2="197.5" y2="186" stroke="#844D1A"/>
<line x1="212.5" y1="171" x2="212.5" y2="186" stroke="#844D1A"/>
<line x1="200.5" y1="167" x2="200.5" y2="189" stroke="#844D1A"/>
<line x1="209.5" y1="167" x2="209.5" y2="189" stroke="#844D1A"/>
<line x1="204.5" y1="166" x2="204.5" y2="190" stroke="#844D1A"/>
<ellipse cx="204.5" cy="166" rx="0.5" ry="1" fill="#F1C05F"/>
<circle cx="212.5" cy="186.5" r="0.5" fill="#F1C05F"/>
<ellipse cx="212.5" cy="170" rx="0.5" ry="1" fill="#F1C05F"/>
<ellipse cx="215.5" cy="178" rx="0.5" ry="1" fill="#F1C05F"/>
<circle cx="204.5" cy="190.5" r="0.5" fill="#F1C05F"/>
<ellipse cx="193.5" cy="178" rx="0.5" ry="1" fill="#F1C05F"/>
<ellipse cx="196.5" cy="170" rx="0.5" ry="1" fill="#F1C05F"/>
<circle cx="196.5" cy="186.5" r="0.5" fill="#F1C05F"/>
<ellipse cx="204.5" cy="178" rx="3.5" ry="4" fill="#8B8B8B"/>
<ellipse cx="204.5" cy="178" rx="2.5" ry="3" fill="#464646"/>
<circle cx="212.5" cy="186.5" r="0.5" fill="#8B8B8B"/>
<circle cx="196.5" cy="186.5" r="0.5" fill="#8B8B8B"/>
<path d="M196.767 170.469L196.55 169.894C196.465 170.004 196.433 170.077 196.461 170.269C196.553 170.449 196.623 170.483 196.767 170.469Z" fill="black" fill-opacity="0.11"/>
<path d="M194.019 178.306L193.731 177.772C193.66 177.894 193.638 177.972 193.69 178.157C193.805 178.321 193.878 178.342 194.019 178.306Z" fill="black" fill-opacity="0.11"/>
<path d="M197 186.89L196.062 186C195.969 186.288 195.961 186.457 196.179 186.795C196.525 187.051 196.702 187.049 197 186.89Z" fill="black" fill-opacity="0.11"/>
<path d="M206 180.561L202.248 177C201.875 178.154 201.843 178.829 202.717 180.179C204.101 181.203 204.809 181.196 206 180.561Z" fill="black" fill-opacity="0.11"/>
<path d="M204.757 190.297L204.327 189.903C204.297 190.046 204.299 190.128 204.404 190.282C204.56 190.392 204.636 190.385 204.757 190.297Z" fill="black" fill-opacity="0.11"/>
<ellipse cx="174.5" cy="187" rx="11.5" ry="13" fill="#F1C05F"/>
<ellipse cx="174.5" cy="187" rx="10.5" ry="12" fill="#5F3E00"/>
<line x1="167.5" y1="180" x2="167.5" y2="195" stroke="#844D1A"/>
<line x1="182.5" y1="180" x2="182.5" y2="195" stroke="#844D1A"/>
<line x1="170.5" y1="176" x2="170.5" y2="198" stroke="#844D1A"/>
<line x1="179.5" y1="176" x2="179.5" y2="198" stroke="#844D1A"/>
<line x1="174.5" y1="175" x2="174.5" y2="199" stroke="#844D1A"/>
<ellipse cx="174.5" cy="175" rx="0.5" ry="1" fill="#F1C05F"/>
<circle cx="182.5" cy="195.5" r="0.5" fill="#F1C05F"/>
<ellipse cx="182.5" cy="179" rx="0.5" ry="1" fill="#F1C05F"/>
<ellipse cx="185.5" cy="187" rx="0.5" ry="1" fill="#F1C05F"/>
<circle cx="174.5" cy="199.5" r="0.5" fill="#F1C05F"/>
<ellipse cx="163.5" cy="187" rx="0.5" ry="1" fill="#F1C05F"/>
<ellipse cx="166.5" cy="179" rx="0.5" ry="1" fill="#F1C05F"/>
<circle cx="166.5" cy="195.5" r="0.5" fill="#F1C05F"/>
<ellipse cx="174.5" cy="187" rx="3.5" ry="4" fill="#8B8B8B"/>
<ellipse cx="174.5" cy="187" rx="2.5" ry="3" fill="#464646"/>
<circle cx="182.5" cy="195.5" r="0.5" fill="#8B8B8B"/>
<circle cx="166.5" cy="195.5" r="0.5" fill="#8B8B8B"/>
<path d="M166.767 179.469L166.55 178.894C166.465 179.004 166.433 179.077 166.461 179.269C166.553 179.449 166.623 179.483 166.767 179.469Z" fill="black" fill-opacity="0.11"/>
<path d="M164.019 187.306L163.731 186.772C163.66 186.894 163.638 186.972 163.69 187.157C163.805 187.321 163.878 187.342 164.019 187.306Z" fill="black" fill-opacity="0.11"/>
<path d="M167 195.89L166.062 195C165.969 195.288 165.961 195.457 166.179 195.795C166.525 196.051 166.702 196.049 167 195.89Z" fill="black" fill-opacity="0.11"/>
<path d="M176 189.561L172.248 186C171.875 187.154 171.843 187.829 172.717 189.179C174.101 190.203 174.809 190.196 176 189.561Z" fill="black" fill-opacity="0.11"/>
<path d="M174.757 199.297L174.327 198.903C174.297 199.046 174.299 199.128 174.404 199.282C174.56 199.392 174.636 199.385 174.757 199.297Z" fill="black" fill-opacity="0.11"/>
<ellipse cx="143.5" cy="191" rx="11.5" ry="13" fill="#F1C05F"/>
<ellipse cx="143.5" cy="191" rx="10.5" ry="12" fill="#5F3E00"/>
<line x1="136.5" y1="184" x2="136.5" y2="199" stroke="#844D1A"/>
<line x1="151.5" y1="184" x2="151.5" y2="199" stroke="#844D1A"/>
<line x1="139.5" y1="180" x2="139.5" y2="202" stroke="#844D1A"/>
<line x1="148.5" y1="180" x2="148.5" y2="202" stroke="#844D1A"/>
<line x1="143.5" y1="179" x2="143.5" y2="203" stroke="#844D1A"/>
<ellipse cx="143.5" cy="179" rx="0.5" ry="1" fill="#F1C05F"/>
<circle cx="151.5" cy="199.5" r="0.5" fill="#F1C05F"/>
<ellipse cx="151.5" cy="183" rx="0.5" ry="1" fill="#F1C05F"/>
<ellipse cx="154.5" cy="191" rx="0.5" ry="1" fill="#F1C05F"/>
<circle cx="143.5" cy="203.5" r="0.5" fill="#F1C05F"/>
<ellipse cx="132.5" cy="191" rx="0.5" ry="1" fill="#F1C05F"/>
<ellipse cx="135.5" cy="183" rx="0.5" ry="1" fill="#F1C05F"/>
<circle cx="135.5" cy="199.5" r="0.5" fill="#F1C05F"/>
<ellipse cx="143.5" cy="191" rx="3.5" ry="4" fill="#8B8B8B"/>
<ellipse cx="143.5" cy="191" rx="2.5" ry="3" fill="#464646"/>
<circle cx="151.5" cy="199.5" r="0.5" fill="#8B8B8B"/>
<circle cx="135.5" cy="199.5" r="0.5" fill="#8B8B8B"/>
<path d="M135.767 183.469L135.55 182.894C135.465 183.004 135.433 183.077 135.461 183.269C135.553 183.449 135.623 183.483 135.767 183.469Z" fill="black" fill-opacity="0.11"/>
<path d="M133.019 191.306L132.731 190.772C132.66 190.894 132.638 190.972 132.69 191.157C132.805 191.321 132.878 191.342 133.019 191.306Z" fill="black" fill-opacity="0.11"/>
<path d="M136 199.89L135.062 199C134.969 199.288 134.961 199.457 135.179 199.795C135.525 200.051 135.702 200.049 136 199.89Z" fill="black" fill-opacity="0.11"/>
<path d="M145 193.561L141.248 190C140.875 191.154 140.843 191.829 141.717 193.179C143.101 194.203 143.809 194.196 145 193.561Z" fill="black" fill-opacity="0.11"/>
<path d="M143.757 203.297L143.327 202.903C143.297 203.046 143.299 203.128 143.404 203.282C143.56 203.392 143.636 203.385 143.757 203.297Z" fill="black" fill-opacity="0.11"/>
</svg>
