<svg width="300" height="300" viewBox="0 0 300 300" fill="none" xmlns="http://www.w3.org/2000/svg">
<rect x="1" y="1.00002" width="298" height="298" rx="7" fill="#ECECEC" stroke="black" stroke-width="2"/>
<rect x="13.5" y="12.5" width="274" height="274" rx="1.5" fill="#ECECEC" stroke="black"/>
<path d="M174.95 206.356L201.297 183.316L235.525 233.09L219.341 247.243L174.95 206.356Z" fill="#975920"/>
<path d="M241.093 253.902C241.08 255.095 240.032 256.011 238.848 255.865L214.555 252.867C212.839 252.656 212.182 250.515 213.483 249.377L238.044 227.898C239.345 226.76 241.379 227.697 241.361 229.425L241.093 253.902Z" fill="#EED44C"/>
<path d="M76.487 93.7634C37.9034 28.8794 44.1191 24.346 102.834 70.7231L201.578 183.637L175.231 206.678L76.487 93.7634Z" fill="#ABABAB"/>
<path d="M83.5532 85.1337C50.7448 40.7553 55.8863 42.2412 93.3391 76.5759L189.45 186.479L179.664 195.037L83.5532 85.1337Z" fill="#D9D9D9"/>
<rect x="147.57" y="223.658" width="100" height="9" transform="rotate(-41.1698 147.57 223.658)" fill="#EED44C"/>
<circle cx="148.651" cy="228.691" r="7.5" transform="rotate(-41.1698 148.651 228.691)" fill="#EED44C"/>
<circle cx="225.432" cy="161.545" r="7.5" transform="rotate(-41.1698 225.432 161.545)" fill="#EED44C"/>
</svg>
