<svg width="429" height="568" viewBox="0 0 429 568" fill="none" xmlns="http://www.w3.org/2000/svg">
<g id="viking">
<rect id="inner-mouth" x="62" y="343" width="187" height="100" fill="#1C1C1C"/>
<g id="upper-teeth">
<path id="Vector 3" d="M83.5 367C79.4528 365.775 75.6017 367.286 68 371C85.6468 359.027 97.9288 353.182 131.5 347C154.759 343.671 167.481 343.546 189.5 347C219.665 351.251 231.475 357.023 247 371C241.844 367.928 239.363 366.926 236 367L230.5 373.5V367C228.46 359.63 226.266 357.79 218 364L211.5 367V361.5C206.907 351.678 203.587 351.382 196.5 359L192 364L189.5 359C184.822 350.5 181.525 348.831 173 358L169.5 361.5L167 355.5C160.166 347.356 156.334 347.796 149.5 355.5L146 361.5L142 355.5C135.08 351.32 131.783 351.364 127.5 358L125.5 364L120.5 359C115.584 354.39 113.181 354.981 109.5 361.5L106 367L100.5 361.5C95.5786 358.412 93.5411 359.567 90.5 364L87.5 371L83.5 367Z" fill="#E47D7D"/>
<path id="Rectangle 1" d="M69.4615 369.345C78.7578 365.074 82.8123 364.7 87 369.345L85.5385 386.273C78.3384 389.773 74.4709 390.043 68 386.273L69.4615 369.345Z" fill="#FBFAFA"/>
<path id="Rectangle 2" d="M87 367.371C93.6633 357.875 97.8429 357.772 106 365.806L108 383.018C100.17 385.644 95.576 385.677 87 383.018V367.371Z" fill="#FBFAFA"/>
<path id="Rectangle 9" d="M192 364C203.474 349.762 208.272 348.89 213 364V381C204.372 384.986 199.785 384.881 192 381V364Z" fill="#FBFAFA"/>
<path id="Rectangle 8" d="M231 369C235.487 363.74 238.777 363.762 246 369V383C240.142 385.915 236.858 386.075 231 383V369Z" fill="#FBFAFA"/>
<path id="Rectangle 7" d="M214 368C223.528 355.197 226.972 356.431 231 368V383C224.814 385.972 221.098 386.01 214 383V368Z" fill="#FBFAFA"/>
<path id="Rectangle 6" d="M170.177 360.601C178.768 344.669 183.585 345.759 192.177 360.601V380.601C183.585 384.389 178.768 384.541 170.177 380.601V360.601Z" fill="#FBFAFA"/>
<path id="Rectangle 5" d="M147 360C156.737 344.219 161.504 344.9 169 360V382C160.774 384.945 155.973 385.078 147 382V360Z" fill="#FBFAFA"/>
<path id="Rectangle 4" d="M125.484 361.698C133.706 346.288 138.297 347.441 146.462 360.754L147.379 381.121C139.154 384.917 134.561 385.058 126.4 382.065L125.484 361.698Z" fill="#FBFAFA"/>
<path id="Rectangle 3" d="M105.951 363.956C112.543 353.434 116.84 353.15 125.463 361.629L127.324 382.592C119.09 385.811 114.492 385.994 106.328 383.007L105.951 363.956Z" fill="#FBFAFA"/>
</g>
<g id="lower-teeth">
<path id="Vector 3_2" d="M96 426.5C91.9528 427.725 75 420 62 417C79.6468 428.973 91.9288 434.818 125.5 441C148.759 444.329 161.481 444.454 183.5 441C213.665 436.749 225.475 430.977 241 417C235.844 420.072 226.363 424.074 223 424L211 420L213 426.5C210.96 433.87 210.266 435.21 202 429L194.5 424V430C189.907 439.822 189.087 437.618 182 430L180 424L176.5 429C171.822 437.5 175.525 439.169 167 430L158.5 424L156.5 432.5C149.666 440.644 153.334 440.204 146.5 432.5L142.5 424L136 432.5C129.08 436.681 131.283 435.636 127 429V424L122 430C117.084 434.61 117.181 435.519 113.5 429L112.5 421L106 429C101.079 432.088 103.041 430.933 100 426.5L99 420L96 426.5Z" fill="#E47D7D"/>
<path id="Rectangle 1_2" d="M88.7692 426.655C93.662 430.926 95.796 431.3 98 426.655L97.2308 409.727C93.4412 406.227 91.4057 405.957 88 409.727L88.7692 426.655Z" fill="#FBFAFA"/>
<path id="Rectangle 2_2" d="M98 424.629C102.125 434.125 104.712 434.228 109.762 426.194L111 408.982C106.153 406.356 103.309 406.323 98 408.982V424.629Z" fill="#FBFAFA"/>
<path id="Rectangle 9_2" d="M179 426.977C188.835 441.234 192.948 442.108 197 426.977V409.954C189.605 405.963 185.673 406.068 179 409.954V426.977Z" fill="#FBFAFA"/>
<path id="Rectangle 8_2" d="M215 423.099C218.59 428.311 221.221 428.289 227 423.099V409.226C222.314 406.338 219.686 406.179 215 409.226V423.099Z" fill="#FBFAFA"/>
<path id="Rectangle 7_2" d="M198 424.243C207.528 437.046 210.972 435.812 215 424.243V409.243C208.814 406.272 205.098 406.233 198 409.243V424.243Z" fill="#FBFAFA"/>
<path id="Rectangle 6_2" d="M162 429.604C168.248 445.332 171.752 444.256 178 429.604V409.861C171.752 406.122 168.248 405.972 162 409.861V429.604Z" fill="#FBFAFA"/>
<path id="Rectangle 5_2" d="M144.637 430.014C152.858 444.225 156.571 443.447 161.887 429.318L161.071 409.078C154.511 406.629 150.742 406.659 143.821 409.774L144.637 430.014Z" fill="#FBFAFA"/>
<path id="Rectangle 4_2" d="M127.042 427.763C133.205 441.516 136.705 440.455 142.998 428.48L143.819 410.231C137.584 406.882 134.091 406.783 127.863 409.514L127.042 427.763Z" fill="#FBFAFA"/>
<path id="Rectangle 3_2" d="M112.733 428.506C117.197 438.987 120.148 439.244 126.125 430.713L127.533 409.741C121.896 406.573 118.738 406.419 113.11 409.456L112.733 428.506Z" fill="#FBFAFA"/>
</g>
<ellipse id="Ellipse 7" cx="42" cy="327.5" rx="20" ry="39.5" fill="#FFE6C8"/>
<ellipse id="Ellipse 8" cx="328" cy="297.5" rx="20" ry="39.5" fill="#FFE6C8"/>
<ellipse id="Ellipse 9" cx="340" cy="321" rx="12" ry="16" fill="#FFE6C8"/>
<g id="face">
<path id="Subtract" fill-rule="evenodd" clip-rule="evenodd" d="M189.5 532C279.246 532 352 459.246 352 369.5C352 279.754 279.246 207 189.5 207C99.7537 207 27 279.754 27 369.5C27 459.246 99.7537 532 189.5 532ZM69.5 370.5C130.994 350.684 169.833 350.903 246.5 370.5C236.78 412.216 218.21 428.894 154.5 443C84.8906 416.918 66.1905 401.045 69.5 370.5Z" fill="#FFE6C8"/>
<g id="blush">
<path id="Ellipse 6" d="M33.9239 346.076C32.9152 365.8 31.6563 374.728 45.5 370.5C46.2648 358.956 68.545 348.677 81.5398 346.076C104.973 341.622 90.2058 327.659 57.7319 319C48.101 322.516 37.7105 334.906 33.9239 346.076Z" fill="#F98F8F" fill-opacity="0.08"/>
<path id="Ellipse 6_2" d="M315 347C325.815 373.15 307.342 388.552 276.5 383C261.912 382.548 244.698 366.432 238 347C200.106 341.078 223.986 322.513 276.5 311C292.074 315.674 308.877 332.149 315 347Z" fill="#F98F8F" fill-opacity="0.08"/>
</g>
</g>
<path id="lower-lip" d="M108 419.5C85.5113 418.134 76.5064 397.855 69 371C70.4924 395.026 72.5138 418.97 102.5 434C116.496 449.949 129.995 443.767 156 444C179.476 447.022 195.861 446.32 207.5 434C240.46 413.384 242.394 397.053 246.5 370.5C233.066 402.159 223.974 423.277 195.5 424C178.24 426.437 167.334 434.024 149 437.5C136.953 435.521 129.854 426.052 108 419.5Z" fill="#F98F8F"/>
<g id="nose">
<path id="Vector 4" d="M115.773 338.421C120.853 337.257 128.478 327.382 133.691 331.112C134.988 333.41 135.066 334.559 133.587 336.258L115.773 338.421Z" fill="black" stroke="black"/>
<path id="Vector 5" d="M180.765 340.613C175.875 338.813 169.567 328.049 163.922 331.086C162.343 333.2 162.12 334.33 163.371 336.203L180.765 340.613Z" fill="black" stroke="black"/>
<path id="Vector 10" d="M136 323.5C131.679 327.083 119.739 330.518 116.5 335.5C103.343 344.245 112.02 343.428 136 338C138.936 338.591 140.314 339.709 142.5 342.5C147.1 348.919 148.683 347.524 151 342.5C154.027 338.941 155.788 338.134 159 338C179.658 343.012 183.749 342.807 180 338C174.792 331.209 170.699 328.513 161.5 325.5C151.113 318.798 140.321 319.917 136 323.5Z" fill="black" fill-opacity="0.08"/>
<path id="Vector 11" d="M143.308 275C133.863 289.832 106.809 327.726 111 331.5C118.348 325.053 113.818 322.115 128.5 321.5L137.5 318C132.104 312.696 142.652 314.288 137.5 312.5C131.131 312.11 138.5 313.5 137.5 306.5C136.5 299.5 140.675 291.606 143.308 275Z" fill="black" fill-opacity="0.05"/>
</g>
<g id="eyes">
<circle id="Ellipse 2" cx="215.5" cy="301.5" r="22.5" fill="white"/>
<circle id="Ellipse 3" cx="94.5" cy="301.5" r="22.5" fill="white"/>
<circle id="Ellipse 5" cx="215" cy="296" r="9" fill="#A2E0FB"/>
<circle id="Ellipse 5_2" cx="93" cy="296" r="9" fill="#A2E0FB"/>
<circle id="left-pupil" cx="91.5" cy="294.5" r="2.5" fill="black"/>
<circle id="right-pupil" cx="214.5" cy="293.5" r="2.5" fill="black"/>
<g id="Vector 6">
<path d="M121 296C100.873 295.82 89.0996 294.764 68 301.978L77.5 321.108C85.0139 324.636 88.8915 325.565 95 324.694C104.816 323.297 108.706 321.639 113.5 317.521L121 296Z" fill="#F5DDBF"/>
<path d="M121 296C100.873 295.82 89.0996 294.764 68 301.978L77.5 321.108C85.0139 324.636 88.8915 325.565 95 324.694C104.816 323.297 108.706 321.639 113.5 317.521L121 296Z" fill="#F5DDBF"/>
<path d="M121 296C100.873 295.82 89.0996 294.764 68 301.978L77.5 321.108C85.0139 324.636 88.8915 325.565 95 324.694C104.816 323.297 108.706 321.639 113.5 317.521L121 296Z" fill="#F5DDBF"/>
</g>
<g id="Vector 8">
<path d="M241.638 296.572C224.059 278.084 212.216 278.981 188.489 294.172L197.353 278.928C204.745 275.873 208.588 274.989 214.72 275.406C224.573 276.076 228.514 277.198 233.439 280.191L241.638 296.572Z" fill="#F5DDBF"/>
<path d="M241.638 296.572C224.059 278.084 212.216 278.981 188.489 294.172L197.353 278.928C204.745 275.873 208.588 274.989 214.72 275.406C224.573 276.076 228.514 277.198 233.439 280.191L241.638 296.572Z" fill="#F5DDBF"/>
<path d="M241.638 296.572C224.059 278.084 212.216 278.981 188.489 294.172L197.353 278.928C204.745 275.873 208.588 274.989 214.72 275.406C224.573 276.076 228.514 277.198 233.439 280.191L241.638 296.572Z" fill="#F5DDBF"/>
</g>
<g id="Vector 9">
<path d="M69 297.501C86.5791 279.013 98.4218 279.909 122.149 295.101L113.285 279.857C105.893 276.802 102.05 275.917 95.918 276.335C86.0645 277.005 82.1238 278.127 77.1992 281.12L69 297.501Z" fill="#F5DDBF"/>
<path d="M69 297.501C86.5791 279.013 98.4218 279.909 122.149 295.101L113.285 279.857C105.893 276.802 102.05 275.917 95.918 276.335C86.0645 277.005 82.1238 278.127 77.1992 281.12L69 297.501Z" fill="#F5DDBF"/>
<path d="M69 297.501C86.5791 279.013 98.4218 279.909 122.149 295.101L113.285 279.857C105.893 276.802 102.05 275.917 95.918 276.335C86.0645 277.005 82.1238 278.127 77.1992 281.12L69 297.501Z" fill="#F5DDBF"/>
</g>
<g id="Vector 7">
<path d="M244.01 301.972C224.733 295.695 213.297 292.893 190.797 298.35L196.714 318.873C203.473 323.691 207.121 325.301 213.287 325.54C223.195 325.924 227.319 324.991 232.773 321.799L244.01 301.972Z" fill="#F5DDBF"/>
<path d="M244.01 301.972C224.733 295.695 213.297 292.893 190.797 298.35L196.714 318.873C203.473 323.691 207.121 325.301 213.287 325.54C223.195 325.924 227.319 324.991 232.773 321.799L244.01 301.972Z" fill="#F5DDBF"/>
<path d="M244.01 301.972C224.733 295.695 213.297 292.893 190.797 298.35L196.714 318.873C203.473 323.691 207.121 325.301 213.287 325.54C223.195 325.924 227.319 324.991 232.773 321.799L244.01 301.972Z" fill="#F5DDBF"/>
</g>
</g>
<path id="Vector 12" d="M131.5 272C123.833 275.402 119.166 275.59 110 272C120.574 284.122 125.546 286.623 131.5 278C142.138 271.41 144.861 265.062 152.5 272L162.5 278C170.208 281.326 182.774 300.51 186 292.5C187.714 283.009 190.238 278.379 199 272C181.688 280.152 173.818 279.828 162.5 272C150.394 266.473 143.606 266.539 131.5 272Z" fill="black" fill-opacity="0.05"/>
<g id="facial-hair">
<path id="Vector 13" d="M54 376.504C93.5174 362.42 111.922 358.829 142.5 355.004L120 345.504C99.4538 344.029 87.953 345.394 67.5 355.004C56.1765 365.952 54.7268 370.025 54 376.504Z" fill="#F7E37A"/>
<path id="Vector 15" d="M62.5 272.477C86.5403 260.324 104.069 258.509 126.287 272.477L125.501 260.663C112.773 251.073 104.483 247.599 85.9159 247.636C72.6407 252.525 66.4269 267.166 62.5 272.477Z" fill="#F7E37A"/>
<path id="Vector 16" d="M249.5 276.958C226.035 266.398 203.457 260.816 178.325 276.958L179.111 265.144C191.839 255.554 200.13 252.08 218.697 252.117C231.972 257.007 245.573 271.647 249.5 276.958Z" fill="#F7E37A"/>
<path id="Vector 14" d="M246.237 371.494C206.39 358.372 187.904 355.227 157.242 352.143L179.506 342.101C200.01 340.13 211.541 341.215 232.22 350.328C243.805 360.999 245.353 365.035 246.237 371.494Z" fill="#F7E37A"/>
<path id="Vector 17" d="M177.5 461.5C155.31 448.834 143.183 447.317 122.5 461.5L103 492C65.8865 450.708 56.9403 425.755 52.5 379.5C44.2286 384.21 40.0513 383.681 33.5 376.5C25.1364 358.935 32.4727 343.295 38 309.5L8.49998 429C21.5964 505.283 42.919 532.471 106.5 552.5C164.871 570.561 191.766 569.91 235 560C329.268 528.247 348.846 489.957 383.5 421.5C376.418 370.287 351.083 340.21 328.5 308.5C333.032 334.54 346.474 358.255 331.5 379.5C291.692 402.859 274.372 394.999 248 372C254.324 415.284 247.009 448.672 200.5 486.5L177.5 461.5Z" fill="#F6E37A" stroke="#F6E37A"/>
</g>
<g id="helmet">
<path id="Rectangle 3_3" d="M114.367 145.309C200.325 94.9401 240.025 112.895 311.599 168.133C317.773 172.484 322.332 198.15 315.398 264.207L87.2554 237.806C92.794 186.867 98.7241 166.601 114.367 145.309Z" fill="#8B8B8B"/>
<ellipse id="Ellipse 1" cx="212.194" cy="176.43" rx="106.683" ry="63" transform="rotate(6.60091 212.194 176.43)" fill="#8B8B8B"/>
<rect id="Rectangle 6_3" x="183.495" y="256.663" width="151" height="40.0061" rx="2" transform="rotate(-83.3991 183.495 256.663)" fill="#BDBCBC"/>
<rect id="Rectangle 4_3" x="86.5105" y="218.26" width="235.591" height="27" rx="2" transform="rotate(6.60091 86.5105 218.26)" fill="#BDBCBC"/>
<ellipse id="Ellipse 10" cx="220.666" cy="109.46" rx="3.70427" ry="2.5" transform="rotate(6.60091 220.666 109.46)" fill="#D9D9D9"/>
<ellipse id="Ellipse 11" cx="208.136" cy="217.737" rx="3.70427" ry="2.5" transform="rotate(6.60091 208.136 217.737)" fill="#D9D9D9"/>
<ellipse id="Ellipse 12" cx="210.32" cy="198.863" rx="3.70427" ry="2.5" transform="rotate(6.60091 210.32 198.863)" fill="#D9D9D9"/>
<ellipse id="Ellipse 13" cx="212.504" cy="179.989" rx="3.70427" ry="2.5" transform="rotate(6.60091 212.504 179.989)" fill="#D9D9D9"/>
<ellipse id="Ellipse 14" cx="214.688" cy="161.115" rx="3.70427" ry="2.5" transform="rotate(6.60091 214.688 161.115)" fill="#D9D9D9"/>
<ellipse id="Ellipse 15" cx="216.872" cy="142.241" rx="3.70427" ry="2.5" transform="rotate(6.60091 216.872 142.241)" fill="#D9D9D9"/>
<ellipse id="Ellipse 16" cx="219.056" cy="123.367" rx="3.70427" ry="2.5" transform="rotate(6.60091 219.056 123.367)" fill="#D9D9D9"/>
<ellipse id="Ellipse 17" cx="319.724" cy="258.837" rx="3.70427" ry="2.5" transform="rotate(6.60091 319.724 258.837)" fill="#D9D9D9"/>
<ellipse id="Ellipse 18" cx="293.23" cy="255.771" rx="3.70427" ry="2.5" transform="rotate(6.60091 293.23 255.771)" fill="#D9D9D9"/>
<ellipse id="Ellipse 19" cx="260.849" cy="252.024" rx="3.70427" ry="2.5" transform="rotate(6.60091 260.849 252.024)" fill="#D9D9D9"/>
<ellipse id="Ellipse 20" cx="224.052" cy="247.766" rx="3.70427" ry="2.5" transform="rotate(6.60091 224.052 247.766)" fill="#D9D9D9"/>
<ellipse id="Ellipse 21" cx="181.367" cy="242.827" rx="3.70427" ry="2.5" transform="rotate(6.60091 181.367 242.827)" fill="#D9D9D9"/>
<ellipse id="Ellipse 22" cx="85.6946" cy="231.755" rx="3.70427" ry="2.5" transform="rotate(6.60091 85.6946 231.755)" fill="#D9D9D9"/>
<ellipse id="Ellipse 23" cx="138.682" cy="237.887" rx="3.70427" ry="2.5" transform="rotate(6.60091 138.682 237.887)" fill="#D9D9D9"/>
<ellipse id="Ellipse 2_2" cx="109.245" cy="234.481" rx="3.70427" ry="2.5" transform="rotate(6.60091 109.245 234.481)" fill="#D9D9D9"/>
<g id="horns">
<path id="Vector 18" d="M364.291 133.271L314.252 161.174C298.816 177.579 295.911 189.116 298.222 212.74C314.012 224.204 321.342 223.55 332.735 214.568L393.28 151.184C407.392 134.236 410.673 120.904 399.323 82.8993L368.483 43.9906L379.727 83.6146C379.747 109.798 375.044 119.184 364.291 133.271Z" fill="#DEDDDC"/>
<path id="Vector 19" d="M68.9802 103.124L111.324 141.718C122.606 161.215 122.799 173.11 115.154 195.582C97.1628 203.136 90.1756 200.826 81.1351 189.479L36.6661 113.943C26.7976 94.2207 26.6485 80.4916 46.378 46.0833L85.289 15.2461L65.2924 51.2549C59.2932 76.7417 61.7282 86.9541 68.9802 103.124Z" fill="#DEDDDC"/>
</g>
</g>
</g>
</svg>
